<?xml version="1.0" encoding="UTF-8" standalone="no"?>
<!-- Created with Inkscape (http://www.inkscape.org/) -->

<svg
   xmlns:dc="http://purl.org/dc/elements/1.1/"
   xmlns:cc="http://creativecommons.org/ns#"
   xmlns:rdf="http://www.w3.org/1999/02/22-rdf-syntax-ns#"
   xmlns:svg="http://www.w3.org/2000/svg"
   xmlns="http://www.w3.org/2000/svg"
   xmlns:xlink="http://www.w3.org/1999/xlink"
   xmlns:sodipodi="http://sodipodi.sourceforge.net/DTD/sodipodi-0.dtd"
   xmlns:inkscape="http://www.inkscape.org/namespaces/inkscape"
   width="744.09448819"
   height="1052.3622047"
   id="svg3002"
   version="1.1"
   inkscape:version="0.47 r22583"
   sodipodi:docname="two_logos.svg"
   inkscape:export-filename="/Users/danny/workspace/OrionGreen_theme/image_sources/two_logos.png"
   inkscape:export-xdpi="90"
   inkscape:export-ydpi="90">
  <defs
     id="defs3004">
    <inkscape:perspective
       sodipodi:type="inkscape:persp3d"
       inkscape:vp_x="0 : 526.18109 : 1"
       inkscape:vp_y="0 : 1000 : 0"
       inkscape:vp_z="744.09448 : 526.18109 : 1"
       inkscape:persp3d-origin="372.04724 : 350.78739 : 1"
       id="perspective3010" />
    <inkscape:perspective
       id="perspective2997"
       inkscape:persp3d-origin="0.5 : 0.33333333 : 1"
       inkscape:vp_z="1 : 0.5 : 1"
       inkscape:vp_y="0 : 1000 : 0"
       inkscape:vp_x="0 : 0.5 : 1"
       sodipodi:type="inkscape:persp3d" />
    <inkscape:perspective
       id="perspective3107"
       inkscape:persp3d-origin="0.5 : 0.33333333 : 1"
       inkscape:vp_z="1 : 0.5 : 1"
       inkscape:vp_y="0 : 1000 : 0"
       inkscape:vp_x="0 : 0.5 : 1"
       sodipodi:type="inkscape:persp3d" />
  </defs>
  <sodipodi:namedview
     id="base"
     pagecolor="#000000"
     bordercolor="#666666"
     borderopacity="1.0"
     inkscape:pageopacity="0"
     inkscape:pageshadow="2"
     inkscape:zoom="1"
     inkscape:cx="251.24423"
     inkscape:cy="520"
     inkscape:document-units="px"
     inkscape:current-layer="layer1"
     showgrid="false"
     inkscape:window-width="1219"
     inkscape:window-height="614"
     inkscape:window-x="1157"
     inkscape:window-y="282"
     inkscape:window-maximized="0" />
  <metadata
     id="metadata3007">
    <rdf:RDF>
      <cc:Work
         rdf:about="">
        <dc:format>image/svg+xml</dc:format>
        <dc:type
           rdf:resource="http://purl.org/dc/dcmitype/StillImage" />
        <dc:title></dc:title>
      </cc:Work>
    </rdf:RDF>
  </metadata>
  <g
     inkscape:label="Layer 1"
     inkscape:groupmode="layer"
     id="layer1">
    <path
       d="m 287.66385,410.36233 c -5.67853,-7e-5 -10.47889,0.48621 -14.6096,1.9195 -4.1133,1.42723 -7.64259,3.99196 -9.46955,7.72068 l -0.0212,0.0423 -0.0211,0.0642 c -1.72602,3.7193 -2.23946,8.09714 -2.23946,13.62845 l 0,76.99342 c 0,5.32616 0.36049,9.46594 1.9408,13.09529 1.67756,3.95899 5.1915,6.75072 9.34165,8.31785 4.0901,1.54441 8.98397,2.2181 14.82281,2.2181 l 35.42555,0 c 5.83884,0 10.71135,-0.67362 14.80144,-2.2181 4.15023,-1.5672 7.70696,-4.40152 9.38425,-8.36051 l 0.0211,-0.0853 0.0423,-0.0853 c 1.33884,-3.5138 1.68479,-7.58165 1.68493,-12.88201 l 0,-76.99342 c -7e-5,-5.53138 -0.5135,-9.90928 -2.23945,-13.62845 -1.75892,-3.81416 -5.30923,-6.39855 -9.4269,-7.82734 -4.13692,-1.43555 -8.95598,-1.91951 -14.69484,-1.91951 l -34.74306,0 z m 82.51739,0 c -7.48016,7e-5 -11.98985,1.52127 -13.52191,4.56415 -0.81107,1.70057 -1.21565,4.35409 -1.21565,7.93395 l 0,64.7086 11.90093,0 0,-33.442 22.84206,0 c 4.86657,7e-5 7.29405,1.61962 7.29419,4.84138 l 0,28.60062 11.77296,0 0,-30.47747 c -7e-5,-3.93797 -2.08228,-6.72806 -6.22773,-8.33914 4.14552,-1.61096 6.22759,-4.24312 6.22773,-7.91259 l 0,-17.9794 c -7e-5,-3.57993 -0.40472,-6.23332 -1.21572,-7.93395 -1.44204,-3.04295 -5.95159,-4.56401 -13.52184,-4.56415 l -24.33502,0 z m 47.96625,0 0,77.2067 11.90092,0 0,-77.2067 -11.90092,0 z m 34.55107,0 c -7.48009,7e-5 -11.98971,1.52127 -13.52184,4.56415 -0.81107,1.70057 -1.21572,4.29423 -1.21572,7.78463 l 0,52.35984 c 0,3.40103 0.36677,5.91785 1.08776,7.52866 1.44196,3.31152 5.93016,4.96935 13.50048,4.96942 l 24.74027,0 c 7.57019,0 12.07981,-1.6577 13.52191,-4.96942 0.63076,-1.61095 0.95965,-4.1277 0.95972,-7.52866 l 0,-52.35984 c -7e-5,-3.4904 -0.42594,-6.084 -1.23701,-7.78463 -1.44204,-3.04295 -5.9303,-4.56401 -13.50055,-4.56415 l -24.33502,0 z m 48.88338,0 0,77.2067 11.90093,0 0,-53.70344 30.15754,53.70344 11.75167,0 0,-77.2067 -11.75167,0 0,52.08255 -30.15754,-52.08255 -11.90093,0 z m -127.34848,10.06673 16.23051,0 c 4.68632,7e-5 7.01675,1.58106 7.01689,4.71349 l 0,13.82043 c -7e-5,3.22203 -2.19564,4.84145 -6.6117,4.84138 l -23.52455,0 0,-18.66181 c 0,-3.1325 2.29262,-4.71349 6.88885,-4.71349 z m 82.51739,0 16.20915,0 c 4.68632,7e-5 7.03805,1.58106 7.03818,4.71349 l 0,47.51839 c -7e-5,3.22197 -2.35193,4.82013 -7.03818,4.82 l -16.20915,0 c -4.59623,6e-5 -6.88885,-1.5981 -6.88885,-4.82 l 0,-47.51839 c -7e-5,-3.1325 2.29262,-4.71349 6.88885,-4.71349 z m -169.087,0.44792 34.74306,0 c 5.0778,-1.4e-4 8.92302,0.53971 11.23973,1.34362 2.35412,0.8168 3.02234,1.62119 3.32714,2.28204 0.59377,1.2794 1.2796,4.5273 1.27967,9.23499 l 0,76.99342 c 0,4.681 -0.53589,7.92515 -1.00237,9.1496 -0.39066,0.92198 -0.98852,1.53499 -3.30585,2.41008 -2.28928,0.86431 -6.08153,1.47166 -11.11176,1.47166 l -35.42555,0 c -5.03044,-7e-5 -8.82256,-0.60735 -11.11184,-1.47166 -2.31746,-0.87516 -3.00036,-1.67995 -3.39109,-2.60199 l 0,-0.0212 -0.0211,-0.0212 c -0.48116,-1.10502 -1.06633,-4.26386 -1.06633,-8.91503 l 0,-76.99342 c -6e-5,-4.70775 0.68591,-7.95552 1.27967,-9.23499 0.36527,-0.74555 1.05002,-1.4623 3.41246,-2.28204 2.32299,-0.80616 6.14487,-1.34362 11.15441,-1.34362 z m 67.9078,70.42439 0,5.52394 4.00963,0 0,37.19573 5.2893,0 0,-37.19573 4.05229,0 0,-5.52394 -13.35122,0 z m 24.29236,0 c -2.73857,6e-5 -4.76529,0.95576 -6.0784,2.90058 -1.01288,1.45882 -1.5356,3.3167 -1.5356,5.54524 l 0,25.82803 c 0,2.18806 0.52272,4.02471 1.5356,5.52394 1.31304,1.94489 3.33997,2.92194 6.0784,2.92188 2.17591,0 3.97038,-0.83401 5.39597,-2.49533 1.46305,-1.70185 2.19687,-3.84774 2.19673,-6.44107 l 0,-4.79872 -5.11868,0 0,4.79872 c 0,0.85093 -0.26385,1.70855 -0.78909,2.55934 -0.52525,0.81046 -1.08455,1.21565 -1.68493,1.21572 -0.60019,0 -1.15457,-0.40519 -1.64221,-1.21572 -0.45024,-0.81032 -0.68249,-1.66787 -0.68249,-2.55934 l 0,-9.66147 4.28686,0 0,-5.52394 -4.28686,0 0,-9.72549 c 0,-0.89133 0.23218,-1.74874 0.68249,-2.55934 0.48771,-0.81032 1.04209,-1.21558 1.64221,-1.21565 0.60025,7e-5 1.15975,0.42881 1.68493,1.27967 0.52524,0.85093 0.78923,1.685 0.78909,2.49532 l 0,3.71111 5.11868,0 0,-3.71111 c 0,-2.55265 -0.73368,-4.67308 -2.19673,-6.33433 -1.42559,-1.70179 -3.21992,-2.53791 -5.39597,-2.53804 z m 18.23532,0 c -2.73856,6e-5 -4.76556,0.95576 -6.0784,2.90058 -1.01295,1.45882 -1.5143,3.3167 -1.5143,5.54524 l 0,25.82803 c 0,2.18806 0.50122,4.02471 1.5143,5.52394 1.31298,1.94489 3.33977,2.92194 6.0784,2.92188 2.17585,0 3.97046,-0.83401 5.39591,-2.49533 1.46312,-1.70185 2.19673,-3.84774 2.1968,-6.44107 l 0,-4.79872 -5.11868,0 0,4.79872 c -7e-5,0.85093 -0.26406,1.70855 -0.7891,2.55934 -0.52524,0.81046 -1.08475,1.21565 -1.68493,1.21572 -0.60025,0 -1.13327,-0.40519 -1.62091,-1.21572 -0.45017,-0.81032 -0.68249,-1.66787 -0.68249,-2.55934 l 0,-15.54795 c 0,-3.48466 0,-5.39167 0,-5.71586 0,-1.17497 0,-2.10507 0,-2.79398 0,-0.72924 0,-1.01513 0,-0.85311 0,-0.89133 0.23225,-1.74874 0.68249,-2.55934 0.4877,-0.81032 1.02059,-1.21558 1.62091,-1.21565 0.60025,7e-5 1.15955,0.42881 1.68493,1.27967 0.52511,0.85093 0.78903,1.685 0.7891,2.49532 l 0,3.71111 5.11868,0 0,-3.71111 c 0,-2.55265 -0.73361,-4.67308 -2.1968,-6.33433 -1.42559,-1.70179 -3.22013,-2.53791 -5.39591,-2.53804 z m 10.64262,0 0,42.71967 5.2893,0 0,-18.59787 4.79873,0 0,18.59787 5.11868,0 0,-42.71967 -5.11868,0 0,18.59786 -4.79873,0 0,-18.59786 -5.2893,0 z m 26.61713,0 c -2.73863,6e-5 -4.76556,0.95576 -6.07847,2.90058 -1.01288,1.45882 -1.51438,3.3167 -1.51424,5.54524 l 0,34.27385 5.2893,0 0,-33.8473 c 0,-0.89133 0.23218,-1.74874 0.68249,-2.55934 0.48764,-0.81032 1.02053,-1.21558 1.62092,-1.21565 0.60018,7e-5 1.15968,0.42881 1.68486,1.27967 0.52518,0.81039 0.78903,1.64453 0.78916,2.49532 l 0,33.8473 5.11868,0 0,-33.8473 c 0,-2.55265 -0.73367,-4.67308 -2.1968,-6.33433 -1.42558,-1.70179 -3.22012,-2.53791 -5.3959,-2.53804 z m 19.02442,0 c -2.73863,6e-5 -4.76542,0.95576 -6.07847,2.90058 -1.01288,1.45882 -1.53567,3.3167 -1.5356,5.54524 l 0,25.82803 c 0,2.18806 0.52272,4.02471 1.5356,5.52394 1.31298,1.94489 3.33977,2.92194 6.07847,2.92188 2.17584,0 3.97032,-0.83401 5.3959,-2.49533 1.46306,-1.70185 2.19667,-3.84774 2.1968,-6.44107 l 0,-24.9109 c 0,-2.55265 -0.73374,-4.67308 -2.1968,-6.33433 -1.42558,-1.70179 -3.21999,-2.53791 -5.3959,-2.53804 z m 10.64255,0 0,42.71967 10.13068,0 0,-5.16134 -4.84138,0 0,-37.55833 -5.2893,0 z m 19.3443,0 c -2.73856,6e-5 -4.76528,0.95576 -6.07839,2.90058 -1.01289,1.45882 -1.51431,3.3167 -1.51431,5.54524 l 0,25.82803 c 0,2.18806 0.50142,4.02471 1.51431,5.52394 1.31304,1.94489 3.33997,2.92194 6.07839,2.92188 2.17592,0 3.99162,-0.83401 5.41734,-2.49533 1.46305,-1.70185 2.19673,-3.84774 2.19673,-6.44107 l 0,-24.9109 c -7e-5,-2.55265 -0.73368,-4.67308 -2.19673,-6.33433 -1.42566,-1.70179 -3.24129,-2.53791 -5.41734,-2.53804 z m 18.25662,0 c -2.73856,6e-5 -4.76542,0.95576 -6.0784,2.90058 -1.01288,1.45882 -1.51417,3.3167 -1.51431,5.54524 l 0,25.82803 c 0,2.18806 0.50136,4.02471 1.51431,5.52394 1.31298,1.94489 3.33984,2.92194 6.0784,2.92188 2.17592,0 3.97046,-0.83401 5.39597,-2.49533 1.46306,-1.70185 2.19687,-3.84774 2.19674,-6.44107 l 0,-15.18541 -7.59271,0 0,5.52394 2.47403,0 0,9.66147 c 0,0.85093 -0.26399,1.70855 -0.7891,2.55934 -0.52524,0.81046 -1.08468,1.21565 -1.68493,1.21572 -0.60018,0 -1.15457,-0.40519 -1.64221,-1.21572 -0.45024,-0.81032 -0.66106,-1.66787 -0.66119,-2.55934 l 0,-24.9109 c 0,-0.89133 0.21095,-1.74874 0.66119,-2.55934 0.48764,-0.81032 1.04196,-1.21558 1.64221,-1.21565 0.60025,7e-5 1.15962,0.42881 1.68493,1.27967 0.52518,0.85093 0.7891,1.685 0.7891,2.49532 l 0,3.71111 5.11868,0 0,-3.71111 c 0,-2.55265 -0.73361,-4.67308 -2.19674,-6.33433 -1.42558,-1.70179 -3.21999,-2.53791 -5.39597,-2.53804 z m 10.64262,0 0,42.71967 5.2893,0 0,-42.71967 -5.2893,0 z m 16.72102,0 c -2.73863,6e-5 -4.76543,0.95576 -6.0784,2.90058 -1.01295,1.45882 -1.51438,3.3167 -1.51431,5.54524 l 0,25.82803 c 0,2.18806 0.50129,4.02471 1.51431,5.52394 1.31297,1.94489 3.33983,2.92194 6.0784,2.92188 2.17584,0 3.97038,-0.83401 5.3959,-2.49533 1.46312,-1.70185 2.19673,-3.84774 2.1968,-6.44107 l 0,-4.79872 -5.11868,0 0,4.79872 c 0,0.85093 -0.26398,1.70855 -0.78909,2.55934 -0.52525,0.81046 -1.08468,1.21565 -1.68493,1.21572 -0.60026,0 -1.15457,-0.40519 -1.64221,-1.21572 -0.45024,-0.81032 -0.66127,-1.66787 -0.6612,-2.55934 l 0,-9.66147 4.26557,0 0,-5.52394 -4.26557,0 0,-9.72549 c 0,-0.89133 0.21103,-1.74874 0.6612,-2.55934 0.48764,-0.81032 1.04202,-1.21558 1.64221,-1.21565 0.60025,7e-5 1.15961,0.42881 1.68493,1.27967 0.52517,0.85093 0.78909,1.685 0.78909,2.49532 l 0,3.71111 5.11868,0 0,-3.71111 c 0,-2.55265 -0.73368,-4.67308 -2.1968,-6.33433 -1.42558,-1.70179 -3.21999,-2.53791 -5.3959,-2.53804 z m 18.23532,0 c -2.17592,6e-5 -3.99687,0.83618 -5.45992,2.53804 -1.42559,1.66132 -2.13292,3.78168 -2.13279,6.33433 l 0,5.9505 c 0,2.95798 0.79176,5.29374 2.36736,6.99553 1.38805,1.53976 3.11932,2.30347 5.18263,2.3034 0.56278,0 1.12228,0.45222 1.68493,1.34369 0.56278,0.8914 0.85311,1.70199 0.85311,2.4313 l 0,5.88648 c -7e-5,0.85093 -0.26399,1.70855 -0.78909,2.55934 -0.52525,0.81046 -1.10598,1.21565 -1.70623,1.21572 -0.60025,0 -1.15976,-0.40519 -1.68493,-1.21572 -0.52525,-0.85086 -0.78923,-1.70841 -0.7891,-2.55934 l 0,-4.79872 -5.11868,0 0,4.79872 c 0,2.59326 0.7072,4.73922 2.13279,6.44107 1.46312,1.66132 3.284,2.49539 5.45992,2.49533 2.17585,0 3.99168,-0.83401 5.4172,-2.49533 1.46312,-1.70185 2.1968,-3.84774 2.1968,-6.44107 l 0,-5.88648 c -7e-5,-6.19947 -2.52296,-9.29879 -7.55005,-9.29893 -0.56271,0 -1.12215,-0.45215 -1.68486,-1.34362 -0.56272,-0.93194 -0.85325,-1.74246 -0.85312,-2.43137 l 0,-5.9505 c 0,-0.85079 0.25873,-1.68486 0.74644,-2.49532 0.52525,-0.85093 1.08462,-1.2796 1.68487,-1.27967 0.60025,7e-5 1.15982,0.42881 1.68493,1.27967 0.56278,0.85093 0.85311,1.685 0.85311,2.49532 l 0,3.71111 5.11868,0 0,-3.71111 c -7e-5,-2.55265 -0.73361,-4.67308 -2.1968,-6.33433 -1.42559,-1.70179 -3.24128,-2.53791 -5.4172,-2.53804 z m -93.84243,5.09738 c 0.60018,7e-5 1.15962,0.42881 1.68486,1.27967 0.52518,0.85093 0.78917,1.685 0.78917,2.49532 l 0,24.9109 c 0,0.85093 -0.26399,1.70855 -0.78917,2.55934 -0.52524,0.81046 -1.08461,1.21565 -1.68486,1.21572 -0.60025,0 -1.1545,-0.40519 -1.64228,-1.21572 -0.45024,-0.81032 -0.68256,-1.66787 -0.68249,-2.55934 l 0,-24.9109 c 0,-0.89133 0.23239,-1.74874 0.68249,-2.55934 0.48771,-0.81032 1.04203,-1.21558 1.64228,-1.21565 z m 29.98685,0 c 0.60025,7e-5 1.18112,0.42881 1.70623,1.27967 0.52524,0.85093 0.76794,1.685 0.7678,2.49532 l 0,24.9109 c 0,0.85093 -0.24249,1.70855 -0.7678,2.55934 -0.52518,0.81046 -1.10584,1.21565 -1.70623,1.21572 -0.60018,0 -1.13321,-0.40519 -1.62091,-1.21572 -0.45017,-0.81032 -0.68249,-1.66787 -0.68249,-2.55934 l 0,-24.9109 c 0,-0.89133 0.23232,-1.74874 0.68249,-2.55934 0.4877,-0.81032 1.0208,-1.21558 1.62091,-1.21565 z"
       style="font-size:72px;font-style:normal;font-variant:normal;font-weight:normal;font-stretch:normal;text-align:start;line-height:100%;writing-mode:lr-tb;text-anchor:start;fill:#e6e6e6;fill-opacity:1;stroke:none;font-family:Butterbelly"
       id="path2964"
       inkscape:export-filename="/Users/danny/workspace/OrionGreen_theme/orion_IdentityImages/two_logos.png"
       inkscape:export-xdpi="56.591114"
       inkscape:export-ydpi="56.591114" />
    <image
       y="410.36218"
       x="77.14286"
       id="image3109"
       height="124"
       width="150"
       xlink:href="file:///Users/danny/workspace/OrionGreen_theme/IdentityImages/orion_logo150.gif"
       inkscape:export-filename="/Users/danny/workspace/OrionGreen_theme/orion_IdentityImages/two_logos.png"
       inkscape:export-xdpi="56.591114"
       inkscape:export-ydpi="56.591114" />
  </g>
</svg>
