<?xml version="1.0" encoding="UTF-8" standalone="no"?>
<!-- Created with Fritzing (http://www.fritzing.org/) -->

<svg
   xmlns:dc="http://purl.org/dc/elements/1.1/"
   xmlns:cc="http://creativecommons.org/ns#"
   xmlns:rdf="http://www.w3.org/1999/02/22-rdf-syntax-ns#"
   xmlns:svg="http://www.w3.org/2000/svg"
   xmlns="http://www.w3.org/2000/svg"
   xmlns:sodipodi="http://sodipodi.sourceforge.net/DTD/sodipodi-0.dtd"
   xmlns:inkscape="http://www.inkscape.org/namespaces/inkscape"
   width="157.5"
   x="0in"
   version="1.2"
   y="0in"
   height="58.499996"
   viewBox="0 0 126 46.8"
   id="svg2"
   inkscape:version="0.48.4 r9939"
   sodipodi:docname="HC-06_Bluetooth_and_breakout.svg.2013_07_27_12_13_21.0.svg">
  <metadata
     id="metadata403">
    <rdf:RDF>
      <cc:Work
         rdf:about="">
        <dc:format>image/svg+xml</dc:format>
        <dc:type
           rdf:resource="http://purl.org/dc/dcmitype/StillImage" />
      </cc:Work>
    </rdf:RDF>
  </metadata>
  <defs
     id="defs401" />
  <sodipodi:namedview
     pagecolor="#ffffff"
     bordercolor="#666666"
     borderopacity="1"
     objecttolerance="10"
     gridtolerance="10"
     guidetolerance="10"
     inkscape:pageopacity="0"
     inkscape:pageshadow="2"
     inkscape:window-width="1366"
     inkscape:window-height="705"
     id="namedview399"
     showgrid="true"
     units="mm"
     showguides="false"
     inkscape:document-units="mm"
     inkscape:zoom="2.8284271"
     inkscape:cx="27.461229"
     inkscape:cy="13.978449"
     inkscape:window-x="-8"
     inkscape:window-y="-8"
     inkscape:window-maximized="1"
     inkscape:current-layer="svg2">
    <inkscape:grid
       type="xygrid"
       id="grid4530"
       units="mm"
       empspacing="5"
       visible="true"
       enabled="true"
       snapvisiblegridlinesonly="true" />
  </sodipodi:namedview>
  <desc
     id="desc4">Fritzing breadboard generated by brd2svg</desc>
  <g
     id="g3999">
    <path
       sodipodi:nodetypes="cccccssssssssssssssssssssssssssssss"
       style="fill:#0f4560;fill-opacity:1;stroke:none"
       inkscape:connector-curvature="0"
       id="path8"
       d="m -4.1081357e-6,46.8 0,-46.7999996121744 L 108.4,3.8782561e-7 108.4,46.8 -4.1081357e-6,46.8 M 103.36,5.4000004 c 0,0.7539823 0.68602,1.4399995 1.44,1.4399995 0.75398,0 1.44,-0.6860172 1.44,-1.4399995 0,-0.7539823 -0.68602,-1.4399995 -1.44,-1.4399995 -0.75398,0 -1.44,0.6860172 -1.44,1.4399995 z m 0,7.1999996 c 0,0.753982 0.68602,1.439999 1.44,1.439999 0.75398,0 1.44,-0.686017 1.44,-1.439999 0,-0.753982 -0.68602,-1.439999 -1.44,-1.439999 -0.75398,0 -1.44,0.686017 -1.44,1.439999 z m 0,7.2 c 0,0.753982 0.68602,1.439999 1.44,1.439999 0.75398,0 1.44,-0.686017 1.44,-1.439999 0,-0.753982 -0.68602,-1.439999 -1.44,-1.439999 -0.75398,0 -1.44,0.686017 -1.44,1.439999 z m 0,7.2 c 0,0.753982 0.68602,1.439999 1.44,1.439999 0.75398,0 1.44,-0.686017 1.44,-1.439999 0,-0.753982 -0.68602,-1.439999 -1.44,-1.439999 -0.75398,0 -1.44,0.686017 -1.44,1.439999 z m 0,7.2 c 0,0.753982 0.68602,1.439999 1.44,1.439999 0.75398,0 1.44,-0.686017 1.44,-1.439999 0,-0.753982 -0.68602,-1.439999 -1.44,-1.439999 -0.75398,0 -1.44,0.686017 -1.44,1.439999 z m 0,7.2 c 0,0.753982 0.68602,1.439999 1.44,1.439999 0.75398,0 1.44,-0.686017 1.44,-1.439999 0,-0.753982 -0.68602,-1.439999 -1.44,-1.439999 -0.75398,0 -1.44,0.686017 -1.44,1.439999 z" />
    <circle
       transform="translate(-17.600001,0)"
       style="fill:none;stroke:#9a916c;stroke-width:1.22399998"
       sodipodi:ry="2.052"
       sodipodi:rx="2.052"
       sodipodi:cy="5.4000001"
       sodipodi:cx="122.4"
       id="connector12pin"
       r="2.052"
       connectorname="RTS_5V"
       cy="5.4000001"
       cx="122.4" />
    <circle
       transform="translate(-17.600001,0)"
       style="fill:none;stroke:#9a916c;stroke-width:1.22399998"
       sodipodi:ry="2.052"
       sodipodi:rx="2.052"
       sodipodi:cy="12.6"
       sodipodi:cx="122.4"
       id="connector13pin"
       r="2.052"
       connectorname="RX_5V"
       cy="12.6"
       cx="122.4" />
    <circle
       transform="translate(-17.600001,0)"
       style="fill:none;stroke:#9a916c;stroke-width:1.22399998"
       sodipodi:ry="2.052"
       sodipodi:rx="2.052"
       sodipodi:cy="19.799999"
       sodipodi:cx="122.4"
       id="connector14pin"
       r="2.052"
       connectorname="TX_5V"
       cy="19.799999"
       cx="122.4" />
    <circle
       transform="translate(-17.600001,0)"
       style="fill:none;stroke:#9a916c;stroke-width:1.22399998"
       sodipodi:ry="2.052"
       sodipodi:rx="2.052"
       sodipodi:cy="27"
       sodipodi:cx="122.4"
       id="connector15pin"
       r="2.052"
       connectorname="VCC"
       cy="27"
       cx="122.4" />
    <circle
       transform="translate(-17.600001,0)"
       style="fill:none;stroke:#9a916c;stroke-width:1.22399998"
       sodipodi:ry="2.052"
       sodipodi:rx="2.052"
       sodipodi:cy="34.200001"
       sodipodi:cx="122.4"
       id="connector16pin"
       r="2.052"
       connectorname="CTS_5V"
       cy="34.200001"
       cx="122.4" />
    <circle
       transform="translate(-17.600001,0)"
       style="fill:none;stroke:#9a916c;stroke-width:1.22399998"
       sodipodi:ry="2.052"
       sodipodi:rx="2.052"
       sodipodi:cy="41.400002"
       sodipodi:cx="122.4"
       id="connector17pin"
       r="2.052"
       connectorname="GND"
       cy="41.400002"
       cx="122.4" />
  </g>
  <rect
     style="fill:#0f4560;fill-opacity:1;stroke:none"
     id="rect4532"
     width="0"
     height="0"
     x="0"
     y="0"
     transform="matrix(0.80000005,0,0,0.80000005,-4.1081358e-6,0)" />
  <rect
     style="fill:#808000;fill-opacity:1;stroke:none"
     id="rect2991"
     width="76.000008"
     height="42.519684"
     x="-4.1081357e-006"
     y="2.1401582" />
  <text
     xml:space="preserve"
     style="font-size:4.80000019000000040px;font-style:normal;font-weight:normal;line-height:125%;letter-spacing:0px;word-spacing:0px;fill:#ffffff;fill-opacity:1;stroke:none;font-family:Sans"
     x="89.357033"
     y="42.799999"
     id="text4008"
     sodipodi:linespacing="125%"><tspan
       sodipodi:role="line"
       id="tspan4010"
       x="89.357033"
       y="42.799999">state</tspan></text>
  <text
     sodipodi:linespacing="125%"
     id="text4012"
     y="35.795689"
     x="89.675789"
     style="font-size:4.80000019000000040px;font-style:normal;font-weight:normal;line-height:125%;letter-spacing:0px;word-spacing:0px;fill:#ffffff;fill-opacity:1;stroke:none;font-family:Sans"
     xml:space="preserve"><tspan
       y="35.795689"
       x="89.675789"
       id="tspan4014"
       sodipodi:role="line">RXD</tspan></text>
  <text
     xml:space="preserve"
     style="font-size:4.80000019000000040px;font-style:normal;font-weight:normal;line-height:125%;letter-spacing:0px;word-spacing:0px;fill:#ffffff;fill-opacity:1;stroke:none;font-family:Sans"
     x="90.210159"
     y="28.724583"
     id="text4016"
     sodipodi:linespacing="125%"><tspan
       sodipodi:role="line"
       x="90.210159"
       y="28.724583"
       id="tspan4020">TXD</tspan></text>
  <text
     sodipodi:linespacing="125%"
     id="text4024"
     y="21.653477"
     x="89.150787"
     style="font-size:4.80000019000000040px;font-style:normal;font-weight:normal;line-height:125%;letter-spacing:0px;word-spacing:0px;fill:#ffffff;fill-opacity:1;stroke:none;font-family:Sans"
     xml:space="preserve"><tspan
       y="21.653477"
       x="89.150787"
       sodipodi:role="line"
       id="tspan4028">GND</tspan></text>
  <text
     xml:space="preserve"
     style="font-size:4.80000019000000040px;font-style:normal;font-weight:normal;line-height:125%;letter-spacing:0px;word-spacing:0px;fill:#ffffff;fill-opacity:1;stroke:none;font-family:Sans"
     x="89.610161"
     y="14.58237"
     id="text4032"
     sodipodi:linespacing="125%"><tspan
       id="tspan4034"
       sodipodi:role="line"
       x="89.610161"
       y="14.58237">VCC</tspan></text>
  <text
     sodipodi:linespacing="125%"
     id="text4036"
     y="7.0343099"
     x="83.200005"
     style="font-size:4.80000019000000040px;font-style:normal;font-weight:normal;line-height:125%;letter-spacing:0px;word-spacing:0px;fill:#ffffff;fill-opacity:1;stroke:none;font-family:Sans"
     xml:space="preserve"><tspan
       y="7.0343099"
       x="83.200005"
       sodipodi:role="line"
       id="tspan4038">wakeup</tspan></text>
</svg>
