<?xml version="1.0" encoding="UTF-8" standalone="no"?>
<!-- Created with Inkscape (http://www.inkscape.org/) -->

<svg
   xmlns:dc="http://purl.org/dc/elements/1.1/"
   xmlns:cc="http://creativecommons.org/ns#"
   xmlns:rdf="http://www.w3.org/1999/02/22-rdf-syntax-ns#"
   xmlns:svg="http://www.w3.org/2000/svg"
   xmlns="http://www.w3.org/2000/svg"
   xmlns:sodipodi="http://sodipodi.sourceforge.net/DTD/sodipodi-0.dtd"
   xmlns:inkscape="http://www.inkscape.org/namespaces/inkscape"
   width="744.09448819"
   height="1052.3622047"
   id="svg5859"
   version="1.1"
   inkscape:version="0.48.4 r9939"
   sodipodi:docname="2013_words_only.svg"
   inkscape:export-filename="/Users/danny/Dropbox/Robot Shop/2013_words_only.png"
   inkscape:export-xdpi="95.924728"
   inkscape:export-ydpi="95.924728">
  <defs
     id="defs5861" />
  <sodipodi:namedview
     id="base"
     pagecolor="#000000"
     bordercolor="#666666"
     borderopacity="1.0"
     inkscape:pageopacity="0"
     inkscape:pageshadow="2"
     inkscape:zoom="0.91413395"
     inkscape:cx="372.04724"
     inkscape:cy="394.9093"
     inkscape:document-units="px"
     inkscape:current-layer="layer1"
     showgrid="false"
     inkscape:window-width="1366"
     inkscape:window-height="705"
     inkscape:window-x="-8"
     inkscape:window-y="-8"
     inkscape:window-maximized="1"
     inkscape:snap-bbox="true"
     inkscape:snap-bbox-midpoints="true"
     inkscape:snap-center="true"
     inkscape:snap-object-midpoints="true"
     inkscape:snap-global="true"
     showguides="true"
     inkscape:guide-bbox="true" />
  <metadata
     id="metadata5864">
    <rdf:RDF>
      <cc:Work
         rdf:about="">
        <dc:format>image/svg+xml</dc:format>
        <dc:type
           rdf:resource="http://purl.org/dc/dcmitype/StillImage" />
        <dc:title></dc:title>
      </cc:Work>
    </rdf:RDF>
  </metadata>
  <g
     inkscape:label="Layer 1"
     inkscape:groupmode="layer"
     id="layer1">
    <rect
       style="color:#000000;fill:#000000;fill-opacity:1;fill-rule:nonzero;stroke:#000000;stroke-width:1;stroke-linecap:round;stroke-linejoin:miter;stroke-miterlimit:4;stroke-opacity:1;stroke-dasharray:none;stroke-dashoffset:0;marker:none;visibility:visible;display:inline;overflow:visible;enable-background:accumulate"
       id="rect3150"
       width="968.12946"
       height="536.02649"
       x="-113.76888"
       y="449.60587"
       ry="0.50507629" />
    <g
       id="layer1-8"
       inkscape:label="Layer 1"
       transform="translate(-258.90624,-106.19801)">
      <g
         id="g5193" />
    </g>
    <g
       id="g4035"
       transform="matrix(0.83751592,0,0,0.75917497,-149.42034,29.287565)" />
    <text
       xml:space="preserve"
       style="font-size:180.27827454px;font-style:normal;font-variant:normal;font-weight:bold;font-stretch:normal;text-align:start;line-height:125%;letter-spacing:0px;word-spacing:0px;writing-mode:lr-tb;text-anchor:start;fill:#507aae;fill-opacity:0.94117647;stroke:none;font-family:HeadLineA;-inkscape-font-specification:HeadLineA Bold"
       x="191.97276"
       y="434.63095"
       id="text4372"
       sodipodi:linespacing="125%"
       transform="scale(1.154507,0.86617058)"><tspan
         sodipodi:role="line"
         id="tspan4374"
         x="191.97276"
         y="434.63095">ROBOTS</tspan></text>
    <path
       style="font-size:72px;font-style:normal;font-variant:normal;font-weight:normal;font-stretch:normal;text-align:start;line-height:100%;writing-mode:lr-tb;text-anchor:start;fill:#507aae;fill-opacity:0.94117647;stroke:none;font-family:Butterbelly"
       d="m 55.956284,47.688044 c -15.12407,-1.9e-4 -27.90926,1.29495 -38.91089,5.11236 -10.9552791,3.80124 -20.3551291,10.63209 -25.2210095,20.56308 l -0.0564,0.1127 -0.0564,0.17087 c -4.5970355,9.9059 -5.9645155,21.56573 -5.9645155,36.297706 l 0,205.06274 c 0,14.18555 0.96013,25.21136 5.1690755,34.87769 4.46798,10.54429 13.8269304,17.97972 24.8803705,22.15359 10.893479,4.11335 23.927699,5.90763 39.478749,5.90763 l 94.351676,0 c 15.55105,0 28.52837,-1.7941 39.42183,-5.90763 11.05364,-4.17405 20.52656,-11.7229 24.99382,-22.2672 l 0.0563,-0.22721 0.1127,-0.22722 c 3.56582,-9.35859 4.48723,-20.19281 4.48759,-34.30965 l 0,-205.06274 c -1.6e-4,-14.732156 -1.36766,-26.392166 -5.96452,-36.297706 -4.68465,-10.15857 -14.14049,-17.04177 -25.1074,-20.84719 -11.01823,-3.82342 -23.85323,-5.11237 -39.13796,-5.11237 l -92.533946,0 z m 219.775076,0 c -19.92249,1.8e-4 -31.93351,4.05172 -36.01395,12.15609 -2.1602,4.52922 -3.23776,11.59656 -3.23776,21.1311 l 0,172.343576 31.69669,0 0,-89.0688 60.83708,0 c 12.96151,1.8e-4 19.4268,4.31366 19.42716,12.89444 l 0,76.17436 31.35588,0 0,-81.17312 c -2e-4,-10.48831 -5.5459,-17.91937 -16.5868,-22.21031 11.04108,-4.29057 16.58643,-11.30101 16.5868,-21.07422 l 0,-47.885926 c -2e-4,-9.53473 -1.07794,-16.6017 -3.23793,-21.1311 -3.84068,-8.10455 -15.85134,-12.15573 -36.0138,-12.15609 z m 127.75229,0 0,205.630766 31.6967,0 0,-205.630766 z m 92.02263,0 c -19.92235,1.8e-4 -31.93316,4.05172 -36.01379,12.15609 -2.16019,4.52922 -3.23792,11.43714 -3.23792,20.73338 l 0,139.454106 c 0,9.0583 0.97685,15.76153 2.8971,20.05175 3.8405,8.81981 15.79424,13.23526 35.95689,13.23544 l 65.89274,0 c 20.16227,0 32.17308,-4.4151 36.01395,-13.23544 1.67996,-4.29057 2.55593,-10.99363 2.55609,-20.05175 l 0,-139.454106 c -1.6e-4,-9.29624 -1.13443,-16.20398 -3.29462,-20.73338 -3.8407,-8.10455 -15.79462,-12.15573 -35.95709,-12.15609 z m 130.19494,0 0,205.630766 31.69666,0 0,-143.03268 80.32096,143.03268 31.2993,0 0,-205.630766 -31.2993,0 0,138.715566 -80.32096,-138.715566 z m -339.17725,26.81152 43.22798,0 c 12.48147,1.8e-4 18.68827,4.21096 18.68863,12.5538 l 0,36.809036 c -1.6e-4,8.58151 -5.8478,12.89462 -17.60943,12.89444 l -62.65481,0 0,-49.703476 c 0,-8.34301 6.1061,-12.5538 18.34763,-12.5538 z m 219.77507,0 43.17112,0 c 12.48145,1.8e-4 18.74497,4.21096 18.74535,12.5538 l 0,126.559486 c -1.8e-4,8.58133 -6.26408,12.83791 -18.74535,12.83754 l -43.17112,0 c -12.24151,1.8e-4 -18.34761,-4.2564 -18.34761,-12.83754 l 0,-126.559486 c -1.8e-4,-8.34301 6.1061,-12.5538 18.34761,-12.5538 z m -450.342756,1.19298 92.533946,0 c 13.5241,-3.6e-4 23.76536,1.43746 29.93564,3.57857 6.26992,2.17546 8.04966,4.31783 8.86146,6.07794 1.58142,3.40752 3.40806,12.05792 3.40824,24.596256 l 0,205.06276 c 0,12.46727 -1.4273,21.10765 -2.6697,24.36884 -1.04047,2.45557 -2.6328,4.08826 -8.80474,6.41895 -6.0972,2.30198 -16.19742,3.91957 -29.59482,3.91957 l -94.351676,0 c -13.39795,-1.8e-4 -23.4978,-1.61759 -29.59502,-3.91957 -6.17228,-2.33087 -7.99111,-4.47434 -9.03176,-6.9301 l 0,-0.0563 -0.0564,-0.0564 c -1.281499,-2.94307 -2.840019,-11.35625 -2.840019,-23.74408 l 0,-205.06274 c -1.8e-4,-12.538526 1.82682,-21.188556 3.408249,-24.596256 0.97285,-1.98569 2.79658,-3.89467 9.08867,-6.07795 6.18699,-2.1471 16.3661,-3.57856 29.70842,-3.57856 z"
       id="path5690"
       inkscape:connector-curvature="0"
       sodipodi:nodetypes="cscccsscsssscccccccsccscscccccccccccccscccccscsscsscccccscccccccccccscccccssscccccscscccccsccscccccsccccc" />
    <text
       transform="scale(0.95038702,1.0522029)"
       sodipodi:linespacing="125%"
       id="text3144"
       y="796.52283"
       x="236.98192"
       style="font-size:148.40458679px;font-style:normal;font-variant:normal;font-weight:bold;font-stretch:normal;text-align:start;line-height:125%;letter-spacing:0px;word-spacing:0px;writing-mode:lr-tb;text-anchor:start;fill:#f9f9f9;fill-opacity:0.94117647;stroke:none;font-family:Aharoni;-inkscape-font-specification:Aharoni Bold"
       xml:space="preserve"
       inkscape:export-filename="/Users/danny/Dropbox/LogoWhite.png"
       inkscape:export-xdpi="95.924728"
       inkscape:export-ydpi="95.924728"><tspan
         y="796.52283"
         x="236.98192"
         id="tspan3146"
         sodipodi:role="line">ROBOTS</tspan></text>
    <path
       sodipodi:nodetypes="cscccsscsssscccccccsccscscccccccccccccscccccscsscsscccccscccccccccccscccccssscccccscscccccsccscccccsccccc"
       inkscape:connector-curvature="0"
       id="path3148"
       d="m 54.862352,509.32717 c -15.12407,-1.9e-4 -27.90926,1.29495 -38.91089,5.11236 -10.9552787,3.80124 -20.3551287,10.63209 -25.2210091,20.56308 l -0.0564,0.1127 -0.0564,0.17087 c -4.5970359,9.9059 -5.9645159,21.56573 -5.9645159,36.29771 l 0,205.06274 c 0,14.18555 0.96013,25.21136 5.169076,34.87769 4.4679799,10.54429 13.8269303,17.97972 24.88037,22.15359 10.893479,4.11335 23.927699,5.90763 39.478749,5.90763 l 94.351678,0 c 15.55105,0 28.52837,-1.7941 39.42183,-5.90763 11.05364,-4.17405 20.52656,-11.7229 24.99382,-22.2672 l 0.0563,-0.22721 0.1127,-0.22722 c 3.56582,-9.35859 4.48723,-20.19281 4.48759,-34.30965 l 0,-205.06274 c -1.6e-4,-14.73216 -1.36766,-26.39217 -5.96452,-36.29771 -4.68465,-10.15857 -14.14049,-17.04177 -25.1074,-20.84719 -11.01823,-3.82342 -23.85323,-5.11237 -39.13796,-5.11237 l -92.533948,0 z m 219.775078,0 c -19.92249,1.8e-4 -31.93351,4.05172 -36.01395,12.15609 -2.1602,4.52922 -3.23776,11.59656 -3.23776,21.1311 l 0,172.34358 31.69669,0 0,-89.0688 60.83708,0 c 12.96151,1.8e-4 19.4268,4.31366 19.42716,12.89444 l 0,76.17436 31.35588,0 0,-81.17312 c -2e-4,-10.48831 -5.5459,-17.91937 -16.5868,-22.21031 11.04108,-4.29057 16.58643,-11.30101 16.5868,-21.07422 l 0,-47.88593 c -2e-4,-9.53473 -1.07794,-16.6017 -3.23793,-21.1311 -3.84068,-8.10455 -15.85134,-12.15573 -36.0138,-12.15609 z m 127.75229,0 0,205.63077 31.6967,0 0,-205.63077 z m 92.02263,0 c -19.92235,1.8e-4 -31.93316,4.05172 -36.01379,12.15609 -2.16019,4.52922 -3.23792,11.43714 -3.23792,20.73338 l 0,139.45411 c 0,9.0583 0.97685,15.76153 2.8971,20.05175 3.8405,8.81981 15.79424,13.23526 35.95689,13.23544 l 65.89274,0 c 20.16227,0 32.17308,-4.4151 36.01395,-13.23544 1.67996,-4.29057 2.55593,-10.99363 2.55609,-20.05175 l 0,-139.45411 c -1.6e-4,-9.29624 -1.13443,-16.20398 -3.29462,-20.73338 -3.8407,-8.10455 -15.79462,-12.15573 -35.95709,-12.15609 z m 130.19494,0 0,205.63077 31.69666,0 0,-143.03268 80.32096,143.03268 31.2993,0 0,-205.63077 -31.2993,0 0,138.71557 -80.32096,-138.71557 z m -339.17725,26.81152 43.22798,0 c 12.48147,1.8e-4 18.68827,4.21096 18.68863,12.5538 l 0,36.80904 c -1.6e-4,8.58151 -5.8478,12.89462 -17.60943,12.89444 l -62.65481,0 0,-49.70348 c 0,-8.34301 6.1061,-12.5538 18.34763,-12.5538 z m 219.77507,0 43.17112,0 c 12.48145,1.8e-4 18.74497,4.21096 18.74535,12.5538 l 0,126.55949 c -1.8e-4,8.58133 -6.26408,12.83791 -18.74535,12.83754 l -43.17112,0 c -12.24151,1.8e-4 -18.34761,-4.2564 -18.34761,-12.83754 l 0,-126.55949 c -1.8e-4,-8.34301 6.1061,-12.5538 18.34761,-12.5538 z m -450.342758,1.19298 92.533948,0 c 13.5241,-3.6e-4 23.76536,1.43746 29.93564,3.57857 6.26992,2.17546 8.04966,4.31783 8.86146,6.07794 1.58142,3.40752 3.40806,12.05792 3.40824,24.59626 l 0,205.06276 c 0,12.46727 -1.4273,21.10765 -2.6697,24.36884 -1.04047,2.45557 -2.6328,4.08826 -8.80474,6.41895 -6.0972,2.30198 -16.19742,3.91957 -29.59482,3.91957 l -94.351678,0 c -13.39795,-1.8e-4 -23.4978,-1.61759 -29.59502,-3.91957 -6.17228,-2.33087 -7.99111,-4.47434 -9.03176,-6.9301 l 0,-0.0563 -0.0564,-0.0564 c -1.281499,-2.94307 -2.840019,-11.35625 -2.840019,-23.74408 l 0,-205.06274 c -1.8e-4,-12.53853 1.82682,-21.18856 3.408249,-24.59626 0.97285,-1.98569 2.79658,-3.89467 9.08867,-6.07795 6.18699,-2.1471 16.3661,-3.57856 29.70842,-3.57856 z"
       style="font-size:72px;font-style:normal;font-variant:normal;font-weight:normal;font-stretch:normal;text-align:start;line-height:100%;writing-mode:lr-tb;text-anchor:start;fill:#f9f9f9;fill-opacity:0.94117647000000004;stroke:none;font-family:Butterbelly"
       inkscape:export-filename="/Users/danny/Dropbox/LogoWhite.png"
       inkscape:export-xdpi="95.924728"
       inkscape:export-ydpi="95.924728" />
  </g>
</svg>
