<?xml version="1.0" encoding="UTF-8" standalone="no"?>
<!-- Created with Inkscape (http://www.inkscape.org/) -->

<svg
   xmlns:dc="http://purl.org/dc/elements/1.1/"
   xmlns:cc="http://creativecommons.org/ns#"
   xmlns:rdf="http://www.w3.org/1999/02/22-rdf-syntax-ns#"
   xmlns:svg="http://www.w3.org/2000/svg"
   xmlns="http://www.w3.org/2000/svg"
   xmlns:sodipodi="http://sodipodi.sourceforge.net/DTD/sodipodi-0.dtd"
   xmlns:inkscape="http://www.inkscape.org/namespaces/inkscape"
   width="744.09448819"
   height="1052.3622047"
   id="svg3003"
   version="1.1"
   inkscape:version="0.48.0 r9654"
   sodipodi:docname="2013 Logo White.svg"
   inkscape:export-filename="C:\Users\danny\PycharmProjects\OrionGreen\image_sources\LogoWhite-small.png"
   inkscape:export-xdpi="27.049517"
   inkscape:export-ydpi="27.049517">
  <defs
     id="defs3005" />
  <sodipodi:namedview
     id="base"
     pagecolor="#ffffff"
     bordercolor="#666666"
     borderopacity="1.0"
     inkscape:pageopacity="0.0"
     inkscape:pageshadow="2"
     inkscape:zoom="0.7"
     inkscape:cx="866.21851"
     inkscape:cy="646.99381"
     inkscape:document-units="px"
     inkscape:current-layer="layer1"
     showgrid="false"
     inkscape:window-width="2560"
     inkscape:window-height="1392"
     inkscape:window-x="0"
     inkscape:window-y="0"
     inkscape:window-maximized="1" />
  <metadata
     id="metadata3008">
    <rdf:RDF>
      <cc:Work
         rdf:about="">
        <dc:format>image/svg+xml</dc:format>
        <dc:type
           rdf:resource="http://purl.org/dc/dcmitype/StillImage" />
        <dc:title></dc:title>
      </cc:Work>
    </rdf:RDF>
  </metadata>
  <g
     inkscape:label="Layer 1"
     inkscape:groupmode="layer"
     id="layer1">
    <text
       transform="scale(0.95038704,1.0522029)"
       sodipodi:linespacing="125%"
       id="text3144"
       y="603.38428"
       x="226.08217"
       style="font-size:148.40458679px;font-style:normal;font-variant:normal;font-weight:bold;font-stretch:normal;text-align:start;line-height:125%;letter-spacing:0px;word-spacing:0px;writing-mode:lr-tb;text-anchor:start;fill:#f9f9f9;fill-opacity:0.94117647;stroke:none;font-family:Aharoni;-inkscape-font-specification:Aharoni Bold"
       xml:space="preserve"
       inkscape:export-filename="/Users/danny/Dropbox/LogoWhite.png"
       inkscape:export-xdpi="95.924728"
       inkscape:export-ydpi="95.924728"><tspan
         y="603.38428"
         x="226.08217"
         id="tspan3146"
         sodipodi:role="line">ROBOTS</tspan></text>
    <path
       sodipodi:nodetypes="cscccsscsssscccccccsccscscccccccccccccscccccscsscsscccccscccccccccccscccccssscccccscscccccsccscccccsccccc"
       inkscape:connector-curvature="0"
       id="path3148"
       d="m 44.5034,306.10621 c -15.1241,-1.9e-4 -27.9093,1.29495 -38.9109,5.11236 -10.9553,3.80124 -20.3552,10.63209 -25.221,20.56308 l -0.056,0.1127 -0.056,0.17087 c -4.5971,9.9059 -5.9646,21.56573 -5.9646,36.29771 l 0,205.06274 c 0,14.1855 0.9602,25.2114 5.1691,34.8777 4.468,10.5443 13.8269,17.9797 24.8804,22.1536 10.8935,4.1133 23.9277,5.9076 39.4787,5.9076 l 94.3517,0 c 15.5511,0 28.5284,-1.7941 39.4218,-5.9076 11.0537,-4.1741 20.5266,-11.7229 24.9939,-22.2672 l 0.056,-0.2272 0.1127,-0.2273 c 3.5658,-9.3585 4.4872,-20.1928 4.4875,-34.3096 l 0,-205.06274 c -1e-4,-14.73216 -1.3676,-26.39217 -5.9645,-36.29771 -4.6846,-10.15857 -14.1405,-17.04177 -25.1074,-20.84719 -11.0182,-3.82342 -23.8532,-5.11237 -39.1379,-5.11237 l -92.534,0 z m 219.775,0 c -19.9225,1.8e-4 -31.9335,4.05172 -36.0139,12.15609 -2.1602,4.52922 -3.2378,11.59656 -3.2378,21.1311 l 0,172.34357 31.6967,0 0,-89.06879 60.8371,0 c 12.9615,1.8e-4 19.4268,4.31366 19.4271,12.89439 l 0,76.1744 31.3559,0 0,-81.17311 c -2e-4,-10.48831 -5.5459,-17.91937 -16.5868,-22.21031 11.0411,-4.29057 16.5865,-11.30101 16.5868,-21.07422 l 0,-47.88593 c -2e-4,-9.53473 -1.0779,-16.6017 -3.2379,-21.1311 -3.8407,-8.10455 -15.8513,-12.15573 -36.0138,-12.15609 z m 127.7523,0 0,205.63076 31.6967,0 0,-205.63076 z m 92.0226,0 c -19.9223,1.8e-4 -31.9331,4.05172 -36.0137,12.15609 -2.1602,4.52922 -3.238,11.43714 -3.238,20.73338 l 0,139.45409 c 0,9.0583 0.9769,15.7615 2.8971,20.0518 3.8405,8.8198 15.7943,13.2352 35.9569,13.2354 l 65.8928,0 c 20.1622,0 32.173,-4.4151 36.0139,-13.2354 1.68,-4.2906 2.5559,-10.9937 2.5561,-20.0518 l 0,-139.45409 c -2e-4,-9.29624 -1.1344,-16.20398 -3.2946,-20.73338 -3.8407,-8.10455 -15.7946,-12.15573 -35.9571,-12.15609 z m 130.195,0 0,205.63076 31.6966,0 0,-143.03267 80.321,143.03267 31.2993,0 0,-205.63076 -31.2993,0 0,138.71556 -80.321,-138.71556 z m -339.1773,26.81152 43.228,0 c 12.4815,1.8e-4 18.6883,4.21096 18.6886,12.5538 l 0,36.80904 c -10e-5,8.58151 -5.8478,12.89462 -17.6094,12.89444 l -62.6548,0 0,-49.70348 c 0,-8.34301 6.1061,-12.5538 18.3476,-12.5538 z m 219.7751,0 43.1711,0 c 12.4815,1.8e-4 18.745,4.21096 18.7454,12.5538 l 0,126.55944 c -2e-4,8.5814 -6.2641,12.838 -18.7454,12.8376 l -43.1711,0 c -12.2415,2e-4 -18.3476,-4.2564 -18.3476,-12.8376 l 0,-126.55944 c -2e-4,-8.34301 6.1061,-12.5538 18.3476,-12.5538 z m -450.3427,1.19298 92.5339,0 c 13.5241,-3.6e-4 23.7654,1.43746 29.9356,3.57857 6.27,2.17546 8.0497,4.31783 8.8615,6.07794 1.5814,3.40752 3.4081,12.05792 3.4082,24.59626 l 0,205.06279 c 0,12.4672 -1.4273,21.1076 -2.6697,24.3688 -1.0404,2.4556 -2.6328,4.0883 -8.8047,6.419 -6.0972,2.3019 -16.1974,3.9195 -29.5948,3.9195 l -94.3517,0 c -13.3979,-2e-4 -23.4978,-1.6176 -29.595,-3.9195 -6.1723,-2.3309 -7.9911,-4.4744 -9.0318,-6.9301 l 0,-0.056 -0.056,-0.056 c -1.2815,-2.9431 -2.84,-11.3563 -2.84,-23.7441 l 0,-205.06276 c -2e-4,-12.53853 1.8268,-21.18856 3.4083,-24.59626 0.9728,-1.98569 2.7965,-3.89467 9.0886,-6.07795 6.187,-2.1471 16.3661,-3.57856 29.7084,-3.57856 z"
       style="font-size:72px;font-style:normal;font-variant:normal;font-weight:normal;font-stretch:normal;text-align:start;line-height:100%;writing-mode:lr-tb;text-anchor:start;fill:#f9f9f9;fill-opacity:0.94117647;stroke:none;font-family:Butterbelly"
       inkscape:export-filename="/Users/danny/Dropbox/LogoWhite.png"
       inkscape:export-xdpi="95.924728"
       inkscape:export-ydpi="95.924728" />
    <text
       inkscape:export-ydpi="61.180435"
       inkscape:export-xdpi="61.180435"
       inkscape:export-filename="/Users/danny/Dropbox/LogoBlack.png"
       xml:space="preserve"
       style="font-size:148.40458678999999620px;font-style:normal;font-variant:normal;font-weight:bold;font-stretch:normal;text-align:start;line-height:125%;letter-spacing:0px;word-spacing:0px;writing-mode:lr-tb;text-anchor:start;fill:#000000;fill-opacity:0.94117647000000004;stroke:none;font-family:Aharoni;-inkscape-font-specification:Aharoni Bold"
       x="229.08846"
       y="57.590576"
       id="text2985"
       sodipodi:linespacing="125%"
       transform="scale(0.95038704,1.0522029)"><tspan
         sodipodi:role="line"
         id="tspan2987"
         x="229.08846"
         y="57.590576">ROBOTS</tspan></text>
    <path
       inkscape:export-ydpi="61.180435"
       inkscape:export-xdpi="61.180435"
       inkscape:export-filename="/Users/danny/Dropbox/LogoBlack.png"
       style="font-size:72px;font-style:normal;font-variant:normal;font-weight:normal;font-stretch:normal;text-align:start;line-height:100%;writing-mode:lr-tb;text-anchor:start;fill:#000000;fill-opacity:0.94117647000000004;stroke:none;font-family:Butterbelly"
       d="m 47.360543,-268.1795 c -15.1241,-1.9e-4 -27.9093,1.29495 -38.9109001,5.11236 -10.9553,3.80124 -20.3551999,10.63209 -25.2209999,20.56308 l -0.056,0.1127 -0.056,0.17087 c -4.5971,9.9059 -5.9646,21.56573 -5.9646,36.29771 l 0,205.06273571 c 0,14.18550029 0.9602,25.21140029 5.1691,34.87770029 4.468,10.5443 13.8268999,17.9797 24.8803999,22.1536 10.8935001,4.1133 23.9277001,5.9076 39.4787001,5.9076 l 94.351697,0 c 15.5511,0 28.5284,-1.7941 39.4218,-5.9076 11.0537,-4.1741 20.5266,-11.7229 24.9939,-22.2672 l 0.056,-0.2272 0.1127,-0.2273 c 3.5658,-9.3585 4.4872,-20.1928 4.4875,-34.30960029 l 0,-205.06273571 c -1e-4,-14.73216 -1.3676,-26.39217 -5.9645,-36.29771 -4.6846,-10.15857 -14.1405,-17.04177 -25.1074,-20.84719 -11.0182,-3.82342 -23.8532,-5.11237 -39.1379,-5.11237 l -92.533997,0 z m 219.774997,0 c -19.9225,1.8e-4 -31.9335,4.05172 -36.0139,12.15609 -2.1602,4.52922 -3.2378,11.59656 -3.2378,21.1311 l 0,172.343566 31.6967,0 0,-89.068786 60.8371,0 c 12.9615,1.8e-4 19.4268,4.31366 19.4271,12.89439 l 0,76.174396 31.3559,0 0,-81.173106 c -2e-4,-10.48831 -5.5459,-17.91937 -16.5868,-22.21031 11.0411,-4.29057 16.5865,-11.30101 16.5868,-21.07422 l 0,-47.88593 c -2e-4,-9.53473 -1.0779,-16.6017 -3.2379,-21.1311 -3.8407,-8.10455 -15.8513,-12.15573 -36.0138,-12.15609 z m 127.7523,0 0,205.630756 31.6967,0 0,-205.630756 z m 92.0226,0 c -19.9223,1.8e-4 -31.9331,4.05172 -36.0137,12.15609 -2.1602,4.52922 -3.238,11.43714 -3.238,20.73338 l 0,139.454086 c 0,9.0583 0.9769,15.7615 2.8971,20.0518 3.8405,8.8198 15.7943,13.2352 35.9569,13.2354 l 65.8928,0 c 20.1622,0 32.173,-4.4151 36.0139,-13.2354 1.68,-4.2906 2.5559,-10.9937 2.5561,-20.0518 l 0,-139.454086 c -2e-4,-9.29624 -1.1344,-16.20398 -3.2946,-20.73338 -3.8407,-8.10455 -15.7946,-12.15573 -35.9571,-12.15609 z m 130.195,0 0,205.630756 31.6966,0 0,-143.032666 80.321,143.032666 31.2993,0 0,-205.630756 -31.2993,0 0,138.71556 -80.321,-138.71556 z m -339.1773,26.81152 43.228,0 c 12.4815,1.8e-4 18.6883,4.21096 18.6886,12.5538 l 0,36.80904 c -10e-5,8.58151 -5.8478,12.89462 -17.6094,12.89444 l -62.6548,0 0,-49.70348 c 0,-8.34301 6.1061,-12.5538 18.3476,-12.5538 z m 219.7751,0 43.1711,0 c 12.4815,1.8e-4 18.745,4.21096 18.7454,12.5538 l 0,126.55944 c -2e-4,8.581396 -6.2641,12.837996 -18.7454,12.837596 l -43.1711,0 c -12.2415,2e-4 -18.3476,-4.2564 -18.3476,-12.837596 l 0,-126.55944 c -2e-4,-8.34301 6.1061,-12.5538 18.3476,-12.5538 z m -450.342697,1.19298 92.533897,0 c 13.5241,-3.6e-4 23.7654,1.43746 29.9356,3.57857 6.27,2.17546 8.0497,4.31783 8.8615,6.07794 1.5814,3.40752 3.4081,12.05792 3.4082,24.59626 l 0,205.06278571 c 0,12.46720029 -1.4273,21.10760029 -2.6697,24.36880029 -1.0404,2.4556 -2.6328,4.0883 -8.8047,6.419 -6.0972,2.3019 -16.1974,3.9195 -29.5948,3.9195 l -94.351697,0 c -13.3979,-2e-4 -23.4978,-1.6176 -29.595,-3.9195 -6.1723,-2.3309 -7.9911001,-4.4744 -9.0318001,-6.9301 l 0,-0.056 -0.056,-0.056 c -1.2815,-2.9431 -2.84,-11.3563 -2.84,-23.74410029 l 0,-205.06275571 c -2e-4,-12.53853 1.8268,-21.18856 3.4083,-24.59626 0.9728,-1.98569 2.7965001,-3.89467 9.0886001,-6.07795 6.187,-2.1471 16.3661,-3.57856 29.7084,-3.57856 z"
       id="path2989"
       inkscape:connector-curvature="0"
       sodipodi:nodetypes="cscccsscsssscccccccsccscscccccccccccccscccccscsscsscccccscccccccccccscccccssscccccscscccccsccscccccsccccc" />
  </g>
</svg>
