<?xml version="1.0" encoding="UTF-8" standalone="no"?>
<!-- Created with Inkscape (http://www.inkscape.org/) -->

<svg
   xmlns:dc="http://purl.org/dc/elements/1.1/"
   xmlns:cc="http://creativecommons.org/ns#"
   xmlns:rdf="http://www.w3.org/1999/02/22-rdf-syntax-ns#"
   xmlns:svg="http://www.w3.org/2000/svg"
   xmlns="http://www.w3.org/2000/svg"
   xmlns:sodipodi="http://sodipodi.sourceforge.net/DTD/sodipodi-0.dtd"
   xmlns:inkscape="http://www.inkscape.org/namespaces/inkscape"
   width="744.09448819"
   height="1052.3622047"
   id="svg2"
   version="1.1"
   inkscape:version="0.48.4 r9939"
   sodipodi:docname="New document 1">
  <defs
     id="defs4" />
  <sodipodi:namedview
     id="base"
     pagecolor="#ffffff"
     bordercolor="#666666"
     borderopacity="1.0"
     inkscape:pageopacity="0.0"
     inkscape:pageshadow="2"
     inkscape:zoom="0.35"
     inkscape:cx="305.12029"
     inkscape:cy="695.12484"
     inkscape:document-units="px"
     inkscape:current-layer="layer1"
     showgrid="false"
     showguides="true"
     inkscape:guide-bbox="true"
     inkscape:window-width="1161"
     inkscape:window-height="613"
     inkscape:window-x="128"
     inkscape:window-y="52"
     inkscape:window-maximized="0" />
  <metadata
     id="metadata7">
    <rdf:RDF>
      <cc:Work
         rdf:about="">
        <dc:format>image/svg+xml</dc:format>
        <dc:type
           rdf:resource="http://purl.org/dc/dcmitype/StillImage" />
        <dc:title></dc:title>
      </cc:Work>
    </rdf:RDF>
  </metadata>
  <g
     inkscape:label="Layer 1"
     inkscape:groupmode="layer"
     id="layer1">
    <g
       id="g3825"
       transform="translate(11.428571,0)">
      <path
         sodipodi:nodetypes="ccccccccccccccc"
         inkscape:connector-curvature="0"
         id="rect3022"
         d="m 524.04586,343.67787 36.97655,38.72235 46.82782,38.73906 -1.06371,10.97655 158.87874,123.31218 -8.58873,9.542 -157.49578,-119.86473 -2.80477,8.12859 -55.30972,-30.18764 -49.6036,7.41134 -281.36813,-95.29131 -55.38409,19.64927 67.13254,-157.47294 21.21515,45.58619 z"
         style="fill:#333333;stroke:none" />
      <g
         transform="translate(41.416254,-51.51778)"
         id="g3016">
        <path
           style="fill:#333333;stroke:none"
           d="m 150.38926,310.76624 -10.8142,25.27893 -298.99842,-127.91006 70.2534,0.14887 z"
           id="rect2988"
           inkscape:connector-curvature="0"
           sodipodi:nodetypes="ccccc" />
        <g
           id="g3012"
           transform="matrix(0.7933502,0.32016717,-0.32016717,0.7933502,217.28046,-21.250643)">
          <rect
             ry="0.50507629"
             y="365.45847"
             x="-96.974648"
             height="75.761444"
             width="180.81731"
             id="rect2991"
             style="fill:#333333;stroke:none" />
          <path
             sodipodi:nodetypes="ccccc"
             inkscape:connector-curvature="0"
             id="rect3009"
             d="m -95.2678,365.69068 c 0.27982,0 0,76.26695 0,76.26695 0,0.25001 -48.99239,-12.50895 -48.99239,-12.50895 -0.18803,0 0,-51.24905 0,-51.24905 0,-0.168 48.99239,-12.50895 48.99239,-12.50895 z"
             style="fill:#333333;stroke:none" />
        </g>
      </g>
    </g>
    <path
       sodipodi:type="arc"
       style="fill:none;stroke:#ff0000;stroke-width:55.23263919;stroke-miterlimit:4;stroke-opacity:1;stroke-dasharray:none"
       id="path3797"
       sodipodi:cx="407.14285"
       sodipodi:cy="423.79074"
       sodipodi:rx="352.85715"
       sodipodi:ry="440"
       d="m 760,423.79074 a 352.85715,440 0 1 1 -705.714294,0 352.85715,440 0 1 1 705.714294,0 z"
       transform="matrix(1.366374,0,0,1.1755332,-240.59513,-147.24647)" />
    <rect
       style="fill:none;stroke:#ff0000;stroke-width:55.49567413;stroke-miterlimit:4;stroke-opacity:1;stroke-dasharray:none"
       id="rect3799"
       width="904.30902"
       height="50.326103"
       x="-436.62717"
       y="-507.1871"
       ry="0.52332252"
       transform="matrix(-0.76715945,0.64145645,-0.68857959,-0.72516078,0,0)" />
  </g>
</svg>
